<svg width="55" height="55" viewBox="0 0 55 55" fill="none" xmlns="http://www.w3.org/2000/svg">
<path d="M53.1667 34.4199V23.8333V18.3333V13.75C53.1667 11.2228 51.1106 9.16667 48.5833 9.16667H36.6667V4.58333C36.6667 2.05608 34.6106 0 32.0833 0H21.0833C18.5561 0 16.5 2.05608 16.5 4.58333V9.16667H4.58333C2.05608 9.16667 0 11.2228 0 13.75V15.5833V23.8333V45.8333C0 48.3606 2.05608 50.4167 4.58333 50.4167H31.0301C33.5491 53.2226 37.191 55 41.25 55C48.8318 55 55 48.8318 55 41.25C55 38.7631 54.3263 36.4347 53.1667 34.4199ZM18.3333 4.58333C18.3333 3.06717 19.5672 1.83333 21.0833 1.83333H32.0833C33.5995 1.83333 34.8333 3.06717 34.8333 4.58333V9.16667H33V4.58333C33 4.07733 32.5903 3.66667 32.0833 3.66667H21.0833C20.5764 3.66667 20.1667 4.07733 20.1667 4.58333V9.16667H18.3333V4.58333ZM31.1667 5.5V9.16667H22V5.5H31.1667ZM1.83333 15.5833V13.75C1.83333 12.2338 3.06717 11 4.58333 11H48.5833C50.0995 11 51.3333 12.2338 51.3333 13.75V18.3333V23.8333C51.3333 26.3606 49.2773 28.4167 46.75 28.4167H46.1459C44.6224 27.8337 42.9761 27.5 41.25 27.5C39.5239 27.5 37.8776 27.8337 36.3541 28.4167H32.0833V25.6667C32.0833 25.1607 31.6736 24.75 31.1667 24.75H22C21.4931 24.75 21.0833 25.1607 21.0833 25.6667V28.4167H11.9167H7.33333H6.41667C3.88942 28.4167 1.83333 26.3606 1.83333 23.8333V15.5833ZM51.3333 28.3149V31.933C50.6147 31.1557 49.819 30.4517 48.9399 29.8568C49.8511 29.524 50.6678 28.996 51.3333 28.3149ZM30.25 26.5833V28.4167H22.9167V26.5833H30.25ZM11 30.25V33H8.25V30.25H11ZM4.58333 48.5833C3.06717 48.5833 1.83333 47.3495 1.83333 45.8333V28.3149C2.99933 29.5075 4.62183 30.25 6.41667 30.25V33.9167C6.41667 34.4227 6.82642 34.8333 7.33333 34.8333H11.9167C12.4236 34.8333 12.8333 34.4227 12.8333 33.9167V30.25H22H31.1667H33.0348C29.6826 32.7598 27.5 36.7501 27.5 41.25C27.5 43.9468 28.292 46.4576 29.6395 48.5833H4.58333ZM53.1199 42.1667C52.6726 48.0058 48.0058 52.6726 42.1667 53.1199V51.3333H40.3333V53.1199C37.0242 52.866 34.0872 51.2646 32.0833 48.8537V48.5833H31.8762C30.4663 46.7848 29.5643 44.5775 29.3792 42.1667H31.1667V40.3333H29.3801C29.8274 34.4942 34.4942 29.8274 40.3333 29.3801V31.1667H42.1667V29.3801C48.0058 29.8274 52.6726 34.4942 53.1199 40.3333H51.3333V42.1667H53.1199Z" fill="white"/>
<path d="M42.1668 40.8705V33H40.3335V41.25C40.3335 41.4929 40.4297 41.7267 40.6021 41.8981L46.1021 47.3981L47.3982 46.1019L42.1668 40.8705Z" fill="white"/>
<path d="M42.1668 23.8333H40.3335V25.6667H42.1668V23.8333Z" fill="white"/>
<path d="M45.8333 23.8333H44V25.6667H45.8333V23.8333Z" fill="white"/>
<path d="M38.4998 23.8333H36.6665V25.6667H38.4998V23.8333Z" fill="white"/>
</svg>
