<svg width="56" height="55" viewBox="0 0 56 55" fill="none" xmlns="http://www.w3.org/2000/svg">
<g clip-path="url(#clip0_88_99)">
<path d="M12.7539 11.7552V43.2413H44.24V11.7552H12.7539ZM41.9485 40.9498H15.0455V14.0469H41.9485V40.9498Z" fill="white"/>
<path d="M39.6567 0H37.3652V8.07757H39.6567V0Z" fill="white"/>
<path d="M32.98 0H30.6885V8.07757H32.98V0Z" fill="white"/>
<path d="M26.3086 0H24.0171V8.07757H26.3086V0Z" fill="white"/>
<path d="M19.6284 0H17.3369V8.07757H19.6284V0Z" fill="white"/>
<path d="M39.6567 46.9224H37.3652V55H39.6567V46.9224Z" fill="white"/>
<path d="M32.98 46.9224H30.6885V55H32.98V46.9224Z" fill="white"/>
<path d="M26.3086 46.9224H24.0171V55H26.3086V46.9224Z" fill="white"/>
<path d="M19.6284 46.9224H17.3369V55H19.6284V46.9224Z" fill="white"/>
<path d="M9.07611 16.3386H0.998535V18.63H9.07611V16.3386Z" fill="white"/>
<path d="M9.07611 23.0183H0.998535V25.3098H9.07611V23.0183Z" fill="white"/>
<path d="M9.07611 29.6901H0.998535V31.9815H9.07611V29.6901Z" fill="white"/>
<path d="M9.07611 36.3665H0.998535V38.6579H9.07611V36.3665Z" fill="white"/>
<path d="M55.9985 16.3386H47.9209V18.63H55.9985V16.3386Z" fill="white"/>
<path d="M55.9985 23.0183H47.9209V25.3098H55.9985V23.0183Z" fill="white"/>
<path d="M55.9985 29.6901H47.9209V31.9815H55.9985V29.6901Z" fill="white"/>
<path d="M55.9985 36.3665H47.9209V38.6579H55.9985V36.3665Z" fill="white"/>
</g>
<defs>
<clipPath id="clip0_88_99">
<rect width="55" height="55" fill="white" transform="translate(0.998535)"/>
</clipPath>
</defs>
</svg>
