<svg width="55" height="55" viewBox="0 0 55 55" fill="none" xmlns="http://www.w3.org/2000/svg">
<g clip-path="url(#clip0_88_7)">
<path d="M48.7624 11.3632C49.2476 11.3632 49.641 10.9698 49.641 10.4846V4.32854C49.641 1.94181 47.6615 0 45.2282 0H9.74112C7.28434 0 5.35986 1.90128 5.35986 4.32854V43.5841C5.35986 46.0355 7.32522 48.0298 9.74112 48.0298H18.3631V54.1214C18.3631 54.4259 18.5207 54.7087 18.7797 54.8688C19.0388 55.0289 19.3623 55.0435 19.6346 54.9072L23.9275 52.7608L28.2204 54.9072C28.3445 54.9692 28.4791 55 28.6133 55C28.774 55 28.9342 54.956 29.0752 54.8688C29.3342 54.7087 29.4919 54.4259 29.4919 54.1214V48.0283L45.2281 48.0005C47.6615 48.0005 49.641 46.0194 49.641 43.5841V37.4281C49.641 36.9429 49.2476 36.5495 48.7624 36.5495H42.6123V11.3632H48.7624ZM47.8838 4.32854V9.60596H42.6123V4.38711C42.6123 2.9427 43.7864 1.76328 45.2299 1.75719C46.6935 1.75813 47.8838 2.91131 47.8838 4.32854ZM28.1996 39.8746C28.0766 39.9404 27.9714 40.0347 27.8921 40.1486C26.7896 41.0653 25.404 41.5692 23.9685 41.5692C22.4441 41.5692 20.9804 41.0049 19.8478 39.9807C18.5581 38.8131 17.8183 37.1504 17.8183 35.4191C17.8183 32.0278 20.5772 29.2689 23.9685 29.2689C27.3597 29.2689 30.1187 32.0278 30.1187 35.4191C30.1187 37.1037 29.4212 38.7138 28.1996 39.8746ZM27.7347 52.6998L24.3204 50.9927C24.0731 50.869 23.7819 50.869 23.5346 50.9927L20.1202 52.6998V42.3247C21.2883 42.9773 22.6094 43.3264 23.9685 43.3264C25.2939 43.3264 26.5865 42.9932 27.7347 42.3696V52.6998ZM29.4919 41.0715C31.0115 39.5862 31.8758 37.5487 31.8758 35.4191C31.8758 31.0589 28.3287 27.5117 23.9685 27.5117C19.6083 27.5117 16.0611 31.0589 16.0611 35.4191C16.0611 37.505 16.8952 39.5125 18.3631 40.9916V46.2726H9.74112C8.29413 46.2726 7.11705 45.0666 7.11705 43.5841V4.32854C7.11705 2.88659 8.26965 1.75719 9.74112 1.75719H41.7346C41.1828 2.49099 40.8551 3.40203 40.8551 4.38711V43.5841C40.8551 44.584 41.1885 45.5077 41.7484 46.2494L29.4919 46.2711V41.0715ZM47.8838 38.3067V43.5841C47.8838 45.0248 46.6691 46.2419 45.2291 46.2433C43.7859 46.2368 42.6123 45.0445 42.6123 43.5841V38.3067H47.8838Z" fill="white"/>
<path d="M23.9687 31.0261C21.5463 31.0261 19.5757 32.9968 19.5757 35.4191C19.5757 37.8414 21.5463 39.8121 23.9687 39.8121C26.391 39.8121 28.3616 37.8414 28.3616 35.4191C28.3616 32.9968 26.391 31.0261 23.9687 31.0261ZM23.9687 38.0549C22.5152 38.0549 21.3329 36.8725 21.3329 35.4191C21.3329 33.9657 22.5152 32.7833 23.9687 32.7833C25.4221 32.7833 26.6044 33.9657 26.6044 35.4191C26.6044 36.8725 25.4221 38.0549 23.9687 38.0549Z" fill="white"/>
<path d="M35.7008 17.8062H12.2717C11.7864 17.8062 11.3931 18.1995 11.3931 18.6847C11.3931 19.17 11.7864 19.5633 12.2717 19.5633H35.7008C36.1861 19.5633 36.5794 19.17 36.5794 18.6847C36.5794 18.1995 36.1861 17.8062 35.7008 17.8062Z" fill="white"/>
<path d="M32.1862 21.3206H15.7858C15.3006 21.3206 14.9072 21.7139 14.9072 22.1992C14.9072 22.6844 15.3006 23.0777 15.7858 23.0777H32.1862C32.6715 23.0777 33.0648 22.6844 33.0648 22.1992C33.0648 21.7139 32.6715 21.3206 32.1862 21.3206Z" fill="white"/>
<path d="M35.7006 14.2918H32.1862C31.701 14.2918 31.3076 14.6852 31.3076 15.1704C31.3076 15.6556 31.701 16.049 32.1862 16.049H35.7006C36.1858 16.049 36.5792 15.6556 36.5792 15.1704C36.5792 14.6852 36.1858 14.2918 35.7006 14.2918Z" fill="white"/>
<path d="M12.2717 16.049H28.6721C29.1573 16.049 29.5507 15.6556 29.5507 15.1704C29.5507 14.6852 29.1573 14.2918 28.6721 14.2918H12.2717C11.7864 14.2918 11.3931 14.6852 11.3931 15.1704C11.3931 15.6556 11.7864 16.049 12.2717 16.049Z" fill="white"/>
<path d="M15.2288 11.1979C15.3892 11.3226 15.5792 11.3831 15.7677 11.3831C16.0295 11.3831 16.2885 11.2665 16.4618 11.0439L18.5023 8.42103L20.5419 11.0437C20.7084 11.2577 20.9643 11.3829 21.2353 11.3829C21.5065 11.3829 21.7625 11.2578 21.9288 11.0438L23.9694 8.42092L26.009 11.0436C26.1755 11.2576 26.4314 11.3828 26.7025 11.3828C26.9736 11.3828 27.2297 11.2576 27.396 11.0436L29.4355 8.42103L31.475 11.0436C31.7728 11.4266 32.3248 11.4958 32.7079 11.1977C33.091 10.8998 33.16 10.3478 32.8621 9.9649L30.129 6.45052C29.9626 6.2365 29.7066 6.11127 29.4355 6.11127C29.1645 6.11127 28.9084 6.2365 28.742 6.45052L26.7025 9.07307L24.663 6.45052C24.4966 6.2365 24.2407 6.11127 23.9696 6.11127C23.6984 6.11127 23.4425 6.23638 23.2761 6.4504L21.2356 9.0733L19.1959 6.45076C19.0295 6.23673 18.7736 6.1115 18.5025 6.1115C18.2314 6.1115 17.9754 6.23661 17.809 6.45064L15.0749 9.96502C14.7768 10.348 14.8458 10.9 15.2288 11.1979Z" fill="white"/>
</g>
<defs>
<clipPath id="clip0_88_7">
<rect width="55" height="55" fill="white" transform="translate(0.000488281)"/>
</clipPath>
</defs>
</svg>
