<svg width="140" height="50" viewBox="0 0 140 50" fill="none" xmlns="http://www.w3.org/2000/svg">
<circle cx="25" cy="25" r="25" fill="url(#paint0_linear_23_7)"/>
<mask id="mask0_23_7" style="mask-type:alpha" maskUnits="userSpaceOnUse" x="0" y="0" width="50" height="50">
<circle cx="25" cy="25" r="25" fill="url(#paint1_linear_23_7)"/>
</mask>
<g mask="url(#mask0_23_7)">
<rect x="14.5" y="17" width="21" height="36" rx="2.25" fill="#31393F" stroke="#80ED99" stroke-width="1.5"/>
<path d="M34.5 19.5V50.5C34.5 51.3284 33.8284 52 33 52H17C16.1716 52 15.5 51.3284 15.5 50.5V19.5C15.5 18.6716 16.1716 18 17 18H25H33C33.8284 18 34.5 18.6716 34.5 19.5Z" stroke="#070304"/>
<circle cx="25" cy="19.75" r="0.75" fill="#272727" stroke="white" stroke-width="0.5"/>
<rect x="21.75" y="31.5" width="3" height="3" rx="0.5" fill="#80ED99"/>
<rect x="21.75" y="35" width="3" height="3" rx="0.5" fill="#80ED99"/>
<rect x="25.25" y="31.5" width="3" height="3" rx="0.5" fill="#80ED99"/>
<rect x="25.25" y="35" width="3" height="3" rx="0.5" fill="#80ED99"/>
</g>
<path d="M114.678 19.2117H116.575L120.492 29.7948H118.38L117.508 27.4514H113.745L112.873 29.7948H110.761L114.678 19.2117ZM117.049 25.7581L115.626 21.7365H115.596L114.219 25.7581H117.049Z" fill="#333333"/>
<path d="M122.105 22.2657H123.972V23.3693L125.089 22.2657H128.057L129.633 23.838V28.2225L128.057 29.7948H125.104L124.125 28.9935V33H122.105V22.2657ZM127.078 28.1015L127.613 27.5724V24.4881L127.078 23.959H125.349L124.125 25.1836V27.0281L125.334 28.1015H127.078Z" fill="#333333"/>
<path d="M131.921 22.2657H133.787V23.3693L134.904 22.2657H137.872L139.448 23.838V28.2225L137.872 29.7948H134.92L133.94 28.9935V33H131.921V22.2657ZM136.893 28.1015L137.429 27.5724V24.4881L136.893 23.959H135.164L133.94 25.1836V27.0281L135.149 28.1015H136.893Z" fill="#333333"/>
<path d="M60 19.2117H61.9277L65.11 26.0454H65.1406L68.3382 19.2117H70.2659V29.7948H68.2617V23.3542H68.2311L65.7679 28.3132H64.4827L62.0348 23.3542H62.0042V29.7948H60V19.2117Z" fill="#333333"/>
<path d="M72.6339 28.2225V23.838L74.2098 22.2657H78.5854L80.1612 23.838V28.2225L78.5854 29.7948H74.2098L72.6339 28.2225ZM77.6062 28.1317L78.1417 27.6026V24.4579L77.6062 23.9287H75.1889L74.6535 24.4579V27.6026L75.1889 28.1317H77.6062Z" fill="#333333"/>
<path d="M82.453 28.162V19H84.4726V23.3089L85.5894 22.2657H88.3739L89.9497 23.838V28.2225L88.3739 29.7948H84.0901L82.453 28.162ZM87.3488 28.1015L87.9302 27.5119V24.5486L87.3488 23.959H85.8495L84.4726 25.3197V27.5119L85.0539 28.1015H87.3488Z" fill="#333333"/>
<path d="M92.1622 20.6933V19.7257L92.8659 19.0302H93.9369L94.6407 19.7257V20.6933L93.9369 21.3888H92.8659L92.1622 20.6933ZM92.3917 22.2657H94.4112V29.7948H92.3917V22.2657Z" fill="#333333"/>
<path d="M97.0956 19H99.1151V29.7948H97.0956V19Z" fill="#333333"/>
<path d="M101.482 28.2527V23.838L103.058 22.2657H107.357L108.948 23.838V26.6955H103.502V27.6631L103.991 28.162H106.485L106.944 27.6933V27.3002H108.933V28.2829L107.418 29.7948H103.027L101.482 28.2527ZM106.929 25.3045V24.4276L106.409 23.8985H104.022L103.502 24.4276V25.3045H106.929Z" fill="#333333"/>
<defs>
<linearGradient id="paint0_linear_23_7" x1="12.75" y1="6.5" x2="33.125" y2="71" gradientUnits="userSpaceOnUse">
<stop stop-color="#22577A"/>
<stop offset="1" stop-color="#57CC99"/>
</linearGradient>
<linearGradient id="paint1_linear_23_7" x1="12.75" y1="6.5" x2="33.125" y2="71" gradientUnits="userSpaceOnUse">
<stop stop-color="#22577A"/>
<stop offset="1" stop-color="#B42B51"/>
</linearGradient>
</defs>
</svg>
