<svg width="55" height="55" viewBox="0 0 55 55" fill="none" xmlns="http://www.w3.org/2000/svg">
<g clip-path="url(#clip0_88_76)">
<path d="M44.3162 14.8821C47.0958 14.8821 49.3541 12.6237 49.3541 9.84418C49.3541 7.06464 47.0958 4.80627 44.3162 4.80627C41.5367 4.80627 39.2783 7.06464 39.2783 9.84418C39.2783 12.6237 41.5367 14.8821 44.3162 14.8821ZM44.3162 6.54348C46.1345 6.54348 47.6169 8.0259 47.6169 9.84418C47.6169 11.6625 46.1345 13.1449 44.3162 13.1449C42.4979 13.1449 41.0155 11.6625 41.0155 9.84418C41.0155 8.0259 42.4979 6.54348 44.3162 6.54348Z" fill="white"/>
<path d="M30.963 15.6233L23.8173 22.0857L23.0182 21.1939C22.6939 20.8349 22.1496 20.8117 21.7906 21.136C21.4316 21.4603 21.4084 22.0046 21.7327 22.3636L22.5318 23.2554L21.42 24.263L20.6209 23.3712C20.2966 23.0122 19.7523 22.989 19.3932 23.3133C19.0342 23.6376 19.011 24.1819 19.3353 24.5409L20.1344 25.4327L16.7758 28.4554C16.4168 28.7797 16.3937 29.324 16.7179 29.6831C17.0422 30.0421 17.5865 30.0652 17.9456 29.741L21.3042 26.7182L24.9986 30.8065C25.3229 31.1655 25.8672 31.1886 26.2262 30.8644C26.5853 30.5401 26.6084 29.9958 26.2842 29.6367L22.5897 25.5485L23.7015 24.5409L25.6472 26.6951C27.8013 29.0693 31.5653 29.1851 34.0553 26.9383C36.5453 24.6915 36.8464 20.9854 34.7501 18.507C34.7386 18.4954 34.7386 18.4955 34.727 18.4839L32.1907 15.6812C31.8664 15.3222 31.3221 15.299 30.963 15.6233ZM33.4299 19.642C34.9123 21.4024 34.6691 24.0314 32.8855 25.6412C31.1136 27.2394 28.4383 27.1931 26.9327 25.5254L24.987 23.3712L31.4958 17.4995L33.4299 19.642Z" fill="white"/>
<path d="M53.2686 0H31.6809C31.4724 0 31.2755 0.0694869 31.1134 0.208464L1.1639 25.9886C0.978599 26.1392 0.874367 26.3708 0.862786 26.614C0.851204 26.8572 0.943855 27.0889 1.11758 27.2626L22.7053 48.4681C22.879 48.6302 23.099 48.7113 23.3191 48.7113C23.516 48.7113 23.7244 48.6418 23.8866 48.5144L53.836 22.8153C54.0213 22.6532 54.1372 22.41 54.1372 22.1552V0.868604C54.1372 0.393767 53.7434 0 53.2686 0ZM52.4115 21.7498L23.3654 46.6614L3.01692 26.6835L32.0167 1.72563H52.4115V21.7498Z" fill="white"/>
<path d="M52.7011 27.7838L23.3655 52.9501L2.34524 31.9531C2.00938 31.6172 1.45348 31.6172 1.11762 31.9531C0.781758 32.2889 0.781758 32.8448 1.11762 33.1807L22.7053 54.7452C22.879 54.9189 23.0991 55 23.3191 55C23.516 55 23.7245 54.9305 23.8866 54.8031L53.8361 29.104C54.1951 28.7913 54.2414 28.2354 53.9287 27.8764C53.616 27.5174 53.0601 27.4711 52.7011 27.7838Z" fill="white"/>
</g>
<defs>
<clipPath id="clip0_88_76">
<rect width="55" height="55" fill="white" transform="translate(-0.000488281)"/>
</clipPath>
</defs>
</svg>
