<svg width="55" height="55" viewBox="0 0 55 55" fill="none" xmlns="http://www.w3.org/2000/svg">
<g clip-path="url(#clip0_88_2)">
<path d="M50.2715 48.9591L42.9901 31.3804C42.8046 30.9327 42.2912 30.7198 41.8434 30.9054C41.3955 31.091 41.1828 31.6044 41.3684 32.0521L47.951 47.9437L41.9467 46.204C41.5526 46.0896 41.1317 46.264 40.9338 46.6236L37.9183 52.0994L30.8552 35.0475C39.0073 33.4755 45.1841 26.2881 45.1841 17.6841C45.1842 7.93311 37.2512 0 27.5002 0C17.7492 0 9.81606 7.93311 9.81606 17.6841C9.81606 21.6337 11.1178 25.2848 13.3145 28.2316L4.72891 48.9591C4.59984 49.2709 4.66081 49.629 4.88584 49.8803C5.11075 50.1317 5.46006 50.2318 5.78409 50.138L12.8677 48.0853L16.4252 54.5457C16.5801 54.8269 16.8754 55 17.1938 55C17.2099 55 17.2262 54.9995 17.2425 54.9987C17.5794 54.98 17.8757 54.7699 18.0049 54.4582L24.808 38.0339C24.9935 37.5861 24.7809 37.0727 24.333 36.8872C23.8852 36.7017 23.3718 36.9144 23.1863 37.3622L17.0819 52.0994L14.0666 46.6236C13.8686 46.264 13.4475 46.0896 13.0536 46.204L7.04945 47.9437L14.5853 29.7506C17.8148 33.205 22.4093 35.3682 27.5002 35.3682C28.0257 35.3682 28.5456 35.3437 29.0595 35.2986L36.9957 54.4582C37.1247 54.7699 37.4212 54.98 37.7579 54.9986C37.7743 54.9995 37.7905 55 37.8067 55C38.1251 55 38.4204 54.8269 38.5752 54.5457L42.1328 48.0853L49.2164 50.138C49.5407 50.232 49.8897 50.1317 50.1147 49.8803C50.3397 49.629 50.4006 49.2709 50.2715 48.9591ZM11.5714 17.6841C11.5714 8.90099 18.7171 1.75532 27.5002 1.75532C36.2834 1.75532 43.4289 8.90099 43.4289 17.6841C43.4289 26.4673 36.2834 33.6128 27.5002 33.6128C18.7171 33.6128 11.5714 26.4673 11.5714 17.6841Z" fill="white"/>
<path d="M37.6413 14.389C37.5403 14.078 37.2744 13.8489 36.9518 13.7947L31.0461 12.8036L28.2787 7.49333C28.1275 7.20324 27.8275 7.02127 27.5003 7.02127C27.1733 7.02127 26.8732 7.20324 26.722 7.49333L23.9545 12.8036L18.0489 13.7947C17.7263 13.8488 17.4605 14.0779 17.3594 14.389C17.2583 14.7002 17.3386 15.0417 17.5678 15.2751L21.763 19.5482L20.8807 25.4711C20.8325 25.7946 20.9682 26.1181 21.2329 26.3105C21.4974 26.5026 21.8472 26.5318 22.14 26.3861L27.5003 23.7166L32.8606 26.3861C32.9846 26.4477 33.1184 26.4782 33.2518 26.4782C33.434 26.4782 33.6151 26.4215 33.7678 26.3106C34.0325 26.1182 34.1682 25.7948 34.12 25.4712L33.2378 19.5483L37.433 15.2751C37.6621 15.0417 37.7424 14.7002 37.6413 14.389ZM31.6789 18.6304C31.4861 18.8268 31.3966 19.1023 31.4372 19.3745L32.1358 24.064L27.8917 21.9505C27.7683 21.8892 27.6345 21.8584 27.5003 21.8584C27.3664 21.8584 27.2323 21.8891 27.1091 21.9505L22.865 24.064L23.5636 19.3745C23.6042 19.1023 23.5147 18.8267 23.3219 18.6304L20.0002 15.247L24.676 14.4623C24.9475 14.4168 25.1819 14.2465 25.3091 14.0024L27.5003 9.79795L29.6916 14.0025C29.8189 14.2466 30.0532 14.4169 30.3247 14.4624L35.0006 15.2472L31.6789 18.6304Z" fill="white"/>
<path d="M40.7952 18.5694C40.3146 18.5052 39.8734 18.8436 39.8099 19.3242C38.9957 25.4686 33.7037 30.1023 27.5002 30.1023C20.6528 30.1023 15.082 24.5317 15.082 17.6842C15.082 10.8367 20.6528 5.26597 27.5002 5.26597C33.7038 5.26597 38.9957 9.89954 39.8099 16.0441C39.8734 16.5247 40.3154 16.8634 40.7952 16.7989C41.2756 16.7352 41.6136 16.2941 41.5499 15.8136C40.6207 8.79978 34.5806 3.51065 27.5002 3.51065C19.6849 3.51065 13.3267 9.86877 13.3267 17.6842C13.3267 25.4995 19.6849 31.8575 27.5002 31.8575C34.5806 31.8575 40.6207 26.5684 41.55 19.5546C41.6136 19.0742 41.2757 18.6331 40.7952 18.5694Z" fill="white"/>
</g>
<defs>
<clipPath id="clip0_88_2">
<rect width="55" height="55" fill="white"/>
</clipPath>
</defs>
</svg>
