<svg width="56" height="55" viewBox="0 0 56 55" fill="none" xmlns="http://www.w3.org/2000/svg">
<g clip-path="url(#clip0_88_31)">
<path d="M48.1414 21.1652C48.1414 10.2634 39.3512 1.47321 28.4985 1.47321C17.6459 1.47321 8.85568 10.2634 8.85568 21.1161C8.85568 21.1161 8.85568 21.1161 8.85568 21.1652C4.48514 21.4107 0.998535 25.0446 0.998535 29.4643V30.4464C0.998535 35.0625 4.73068 38.7946 9.34675 38.7946H9.78871L13.2753 44.3437C15.7307 48.2723 19.9048 50.5803 24.5209 50.5803H25.2084C25.6503 52.25 27.1726 53.5268 28.9896 53.5268C31.1503 53.5268 32.9182 51.7589 32.9182 49.5982C32.9182 47.4375 31.1503 45.6696 28.9896 45.6696C27.1726 45.6696 25.6503 46.9464 25.2084 48.6161H24.5209C20.5923 48.6161 17.0075 46.6027 14.945 43.2634L12.0967 38.7946H12.7842C13.8646 38.7946 14.7485 37.9107 14.7485 36.8303V23.0803C14.7485 22 13.8646 21.1161 12.7842 21.1161H10.82C10.82 11.3437 18.7262 3.43749 28.4985 3.43749C38.2709 3.43749 46.1771 11.3437 46.1771 21.1161H44.2128C43.1325 21.1161 42.2485 22 42.2485 23.0803V36.8303C42.2485 37.9107 43.1325 38.7946 44.2128 38.7946H47.6503C52.2664 38.7946 55.9985 35.0625 55.9985 30.4464V29.4643C55.9985 25.0446 52.5119 21.4107 48.1414 21.1652ZM28.9896 47.6339C30.07 47.6339 30.9539 48.5178 30.9539 49.5982C30.9539 50.6786 30.07 51.5625 28.9896 51.5625C27.9093 51.5625 27.0253 50.6786 27.0253 49.5982C27.0253 48.5178 27.9093 47.6339 28.9896 47.6339ZM12.7842 23.0803V36.8303H9.34675C5.81104 36.8303 2.96282 33.9821 2.96282 30.4464V29.4643C2.96282 25.9286 5.81104 23.0803 9.34675 23.0803H12.7842ZM54.0342 30.4464C54.0342 33.9821 51.186 36.8303 47.6503 36.8303H44.2128V23.0803H47.6503C51.186 23.0803 54.0342 25.9286 54.0342 29.4643V30.4464Z" fill="white"/>
<path d="M36.6502 8.88837C36.552 8.83927 36.4046 8.74105 36.2573 8.64284C36.11 8.54462 35.9627 8.44641 35.8645 8.3973C35.4225 8.10266 34.7841 8.24998 34.5386 8.74105C34.293 9.23212 34.3912 9.7723 34.8823 10.0669C34.9805 10.1161 35.1278 10.2143 35.2752 10.3125C35.4225 10.4107 35.5698 10.5089 35.7171 10.558C35.8645 10.6562 36.0609 10.7053 36.2082 10.7053C36.552 10.7053 36.8466 10.558 37.043 10.2143C37.2886 9.7723 37.1412 9.18302 36.6502 8.88837Z" fill="white"/>
<path d="M28.4983 6.38391C24.3242 6.38391 20.3956 8.20088 17.6947 11.3437C17.351 11.7366 17.4001 12.375 17.7929 12.7187C17.9894 12.8661 18.1858 12.9643 18.4313 12.9643C18.726 12.9643 18.9715 12.8661 19.1679 12.6205C21.5251 9.91963 24.9135 8.3482 28.4983 8.3482C29.3822 8.3482 30.2662 8.44641 31.1501 8.64284C31.6903 8.74105 32.1813 8.3973 32.3286 7.90623C32.476 7.41516 32.0831 6.87498 31.592 6.72766C30.5608 6.48213 29.5295 6.38391 28.4983 6.38391Z" fill="white"/>
</g>
<defs>
<clipPath id="clip0_88_31">
<rect width="55" height="55" fill="white" transform="translate(0.998535)"/>
</clipPath>
</defs>
</svg>
