<svg width="25" height="20" viewBox="0 0 25 20" fill="none" xmlns="http://www.w3.org/2000/svg">
<path fill-rule="evenodd" clip-rule="evenodd" d="M2.0389 8.5638C8.53214 5.75669 12.8617 3.9059 15.0275 3.01142C21.2133 0.459883 22.5053 0.0167643 23.3361 0.000276131C23.6443 -0.00566646 23.9465 0.0844393 24.2002 0.257903C24.3783 0.410259 24.4918 0.623739 24.5181 0.855598C24.5628 1.14395 24.5753 1.43632 24.5554 1.72741C24.221 5.23113 22.7691 13.6998 22.0317 17.6137C21.7201 19.2625 21.1053 19.8252 20.5091 19.8808C19.2171 19.9983 18.2242 19.0317 16.9779 18.2176C15.0171 16.9418 13.9099 16.1566 12.0072 14.9035C9.80752 13.4608 11.2345 12.6755 12.4871 11.3853C12.8153 11.0473 18.5109 5.90303 18.623 5.43724C18.6378 5.36845 18.6361 5.29719 18.6181 5.22917C18.6 5.16116 18.5662 5.0983 18.5192 5.04564C18.451 5.00336 18.3738 4.97743 18.2938 4.96992C18.2137 4.96241 18.133 4.97352 18.058 5.00236C17.8628 5.04496 14.7318 7.09841 8.66508 11.1627C7.77605 11.7687 6.9708 12.0641 6.24933 12.049C5.45378 12.0304 3.92497 11.6017 2.78668 11.2246C1.3929 10.7753 0.294082 10.5382 0.381323 9.78186C0.43256 9.38614 0.985083 8.98012 2.0389 8.5638Z" fill="#38A3A5"/>
</svg>
