<svg width="25" height="17" viewBox="0 0 25 17" fill="none" xmlns="http://www.w3.org/2000/svg">
<path d="M24.4348 2.62335C24.2972 2.11474 24.0272 1.65097 23.652 1.2786C23.2767 0.906228 22.8093 0.638346 22.2967 0.501837C20.4125 -2.87566e-06 12.8476 0 12.8476 0C12.8476 0 5.28268 -2.87566e-06 3.39634 0.501837C2.88434 0.639534 2.41757 0.907818 2.04246 1.28001C1.66736 1.6522 1.39698 2.11533 1.25821 2.62335C0.752432 4.49502 0.752441 8.3999 0.752441 8.3999C0.752441 8.3999 0.752432 12.3048 1.25821 14.1764C1.39698 14.6845 1.66736 15.1476 2.04246 15.5198C2.41757 15.892 2.88434 16.1603 3.39634 16.298C5.28268 16.7998 12.8476 16.7998 12.8476 16.7998C12.8476 16.7998 20.4103 16.7998 22.2967 16.298C22.8093 16.1615 23.2767 15.8936 23.652 15.5212C24.0272 15.1488 24.2972 14.6851 24.4348 14.1764C24.9406 12.3048 24.9406 8.3999 24.9406 8.3999C24.9406 8.3999 24.9406 4.49502 24.4348 2.62335ZM10.4273 11.9989V4.80087L16.7223 8.3999L10.4273 11.9989Z" fill="#38A3A5"/>
</svg>
