<svg width="621" height="269" viewBox="0 0 621 269" fill="none" xmlns="http://www.w3.org/2000/svg">
<rect x="0.000488281" y="0.00366211" width="621" height="268" rx="7" fill="#22577A"/>
<path d="M15.0004 268.003V257.003C200 239.003 172 0.000366211 311 0.000488281C228.5 21.5002 333.5 213.553 206 255.5C170.378 267.22 70.5004 267 15.0004 268.003Z" fill="#38759D"/>
<path d="M312 -3.05176e-05H6.29794C2.81979 -3.05176e-05 0.000213623 2.81958 0.000213623 6.2977L0.000701904 261C0.101349 265.806 4.11563 268.089 7.00049 268C268.5 268 296 210 279.5 114.5C263 18.9999 258.5 -3.05176e-05 312 -3.05176e-05Z" fill="#1E4966"/>
</svg>
